HIERARCHY
ROOT hip
{
  OFFSET 0 0 0
  CHANNELS 6 Xposition Yposition Zposition Zrotation Yrotation Xrotation
  JOINT abdomen
  {
    OFFSET 0 20.6881 -0.73152
    CHANNELS 3 Zrotation Xrotation Yrotation
    JOINT chest
    {
      OFFSET 0 11.7043 -0.48768
      CHANNELS 3 Zrotation Xrotation Yrotation
      JOINT neck
      {
        OFFSET 0 22.1894 -2.19456
        CHANNELS 3 Zrotation Xrotation Yrotation
        JOINT head
        {
          OFFSET -0.24384 7.07133 1.2192
          CHANNELS 3 Zrotation Xrotation Yrotation
          JOINT leftEye
          {
            OFFSET 4.14528 8.04674 8.04672
            CHANNELS 3 Zrotation Xrotation Yrotation
            End Site
            {
              OFFSET 1 0 0
            }
          }
          JOINT rightEye
          {
            OFFSET -3.6576 8.04674 8.04672
            CHANNELS 3 Zrotation Xrotation Yrotation
            End Site
            {
              OFFSET 1 0 0
            }
          }
        }
      }
      JOINT rCollar
      {
        OFFSET -2.68224 19.2634 -4.8768
        CHANNELS 3 Zrotation Xrotation Yrotation
        JOINT rShldr
        {
          OFFSET -8.77824 -1.95073 1.46304
          CHANNELS 3 Zrotation Xrotation Yrotation
          JOINT rForeArm
          {
            OFFSET -28.1742 -1.7115 0.48768
            CHANNELS 3 Zrotation Xrotation Yrotation
            JOINT rHand
            {
              OFFSET -22.5879 0.773209 7.07136
              CHANNELS 3 Zrotation Xrotation Yrotation
              JOINT rThumb1
              {
                OFFSET -1.2192 -0.487915 3.41376
                CHANNELS 3 Zrotation Xrotation Yrotation
                JOINT rThumb2
                {
                  OFFSET -3.37035 -0.52449 3.41376
                  CHANNELS 3 Zrotation Xrotation Yrotation
                  End Site
                  {
                    OFFSET -1.78271 -1.18214 1.43049
                  }
                }
              }
              JOINT rIndex1
              {
                OFFSET -7.75947 0.938293 5.60832
                CHANNELS 3 Zrotation Xrotation Yrotation
                JOINT rIndex2
                {
                  OFFSET -2.54057 -0.884171 1.56538
                  CHANNELS 3 Zrotation Xrotation Yrotation
                  End Site
                  {
                    OFFSET -1.62519 -0.234802 1.16502
                  }
                }
              }
              JOINT rMid1
              {
                OFFSET -8.24714 1.18213 3.41376
                CHANNELS 3 Zrotation Xrotation Yrotation
                JOINT rMid2
                {
                  OFFSET -3.10165 -0.590103 1.0647
                  CHANNELS 3 Zrotation Xrotation Yrotation
                  End Site
                  {
                    OFFSET -2.48547 -0.328903 0.83742
                  }
                }
              }
              JOINT rRing1
              {
                OFFSET -8.82822 0.546677 1.51678
                CHANNELS 3 Zrotation Xrotation Yrotation
                JOINT rRing2
                {
                  OFFSET -2.60934 -0.819778 -0.0198488
                  CHANNELS 3 Zrotation Xrotation Yrotation
                  End Site
                  {
                    OFFSET -2.33842 -0.294052 0.168128
                  }
                }
              }
              JOINT rPinky1
              {
                OFFSET -8.27202 -0.0477905 -0.4584
                CHANNELS 3 Zrotation Xrotation Yrotation
                JOINT rPinky2
                {
                  OFFSET -1.82734 -0.647385 -0.700984
                  CHANNELS 3 Zrotation Xrotation Yrotation
                  End Site
                  {
                    OFFSET -1.69225 -0.51767 -0.607171
                  }
                }
              }
            }
          }
        }
      }
      JOINT lCollar
      {
        OFFSET 2.68224 19.2634 -4.8768
        CHANNELS 3 Zrotation Xrotation Yrotation
        JOINT lShldr
        {
          OFFSET 8.77824 -1.95073 1.46304
          CHANNELS 3 Zrotation Xrotation Yrotation
          JOINT lForeArm
          {
            OFFSET 28.1742 -1.7115 0.48768
            CHANNELS 3 Zrotation Xrotation Yrotation
            JOINT lHand
            {
              OFFSET 22.5879 0.773209 7.07136
              CHANNELS 3 Zrotation Xrotation Yrotation
              JOINT lThumb1
              {
                OFFSET 1.2192 -0.487915 3.41376
                CHANNELS 3 Zrotation Xrotation Yrotation
                JOINT lThumb2
                {
                  OFFSET 3.37035 -0.52449 3.41376
                  CHANNELS 3 Zrotation Xrotation Yrotation
                  End Site
                  {
                    OFFSET 1.78271 -1.18214 1.43049
                  }
                }
              }
              JOINT lIndex1
              {
                OFFSET 7.75947 0.938293 5.60832
                CHANNELS 3 Zrotation Xrotation Yrotation
                JOINT lIndex2
                {
                  OFFSET 2.54057 -0.884171 1.56538
                  CHANNELS 3 Zrotation Xrotation Yrotation
                  End Site
                  {
                    OFFSET 1.62519 -0.234802 1.16502
                  }
                }
              }
              JOINT lMid1
              {
                OFFSET 8.24714 1.18213 3.41376
                CHANNELS 3 Zrotation Xrotation Yrotation
                JOINT lMid2
                {
                  OFFSET 3.10165 -0.590103 1.0647
                  CHANNELS 3 Zrotation Xrotation Yrotation
                  End Site
                  {
                    OFFSET 2.48547 -0.328903 0.83742
                  }
                }
              }
              JOINT lRing1
              {
                OFFSET 8.82822 0.546677 1.51678
                CHANNELS 3 Zrotation Xrotation Yrotation
                JOINT lRing2
                {
                  OFFSET 2.60934 -0.819778 -0.0198488
                  CHANNELS 3 Zrotation Xrotation Yrotation
                  End Site
                  {
                    OFFSET 2.33842 -0.294052 0.168128
                  }
                }
              }
              JOINT lPinky1
              {
                OFFSET 8.27202 -0.0477905 -0.4584
                CHANNELS 3 Zrotation Xrotation Yrotation
                JOINT lPinky2
                {
                  OFFSET 1.82734 -0.647385 -0.700984
                  CHANNELS 3 Zrotation Xrotation Yrotation
                  End Site
                  {
                    OFFSET 1.69225 -0.51767 -0.607171
                  }
                }
              }
            }
          }
        }
      }
    }
  }
  JOINT rButtock
  {
    OFFSET -8.77824 4.35084 1.2192
    CHANNELS 3 Zrotation Xrotation Yrotation
    JOINT rThigh
    {
      OFFSET 0 -1.70687 -2.19456
      CHANNELS 3 Zrotation Xrotation Yrotation
      JOINT rShin
      {
        OFFSET 0 -36.8199 0.73152
        CHANNELS 3 Zrotation Xrotation Yrotation
        JOINT rFoot
        {
          OFFSET 0.73152 -45.1104 -5.12064
          CHANNELS 3 Zrotation Xrotation Yrotation
          End Site
          {
            OFFSET -1.1221 -3.69964 12.103
          }
        }
      }
    }
  }
  JOINT lButtock
  {
    OFFSET 8.77824 4.35084 1.2192
    CHANNELS 3 Zrotation Xrotation Yrotation
    JOINT lThigh
    {
      OFFSET 0 -1.70687 -2.19456
      CHANNELS 3 Zrotation Xrotation Yrotation
      JOINT lShin
      {
        OFFSET 0 -36.8199 0.73152
        CHANNELS 3 Zrotation Xrotation Yrotation
        JOINT lFoot
        {
          OFFSET -0.73152 -45.1104 -5.12064
          CHANNELS 3 Zrotation Xrotation Yrotation
          End Site
          {
            OFFSET 1.1221 -3.69964 12.103
          }
        }
      }
    }
  }
}
MOTION
Frames:	6
Frame Time:	0.03333
3.7317000000000005 69.9318 32.196000000000005 -10.892144 -27.9114 7.622965 2.736549 12.039863 52.870888 -4.623623 -6.155941 -38.219592 9.403144 21.024298 83.688972 -33.772116 2.044297 -79.330758 0.000194 -0.0 -0.002281 0.000654 0.0 0.004374 -9.652071 34.836058 11.199707 -104.041282 -13.040237 163.374241 -6.59522 -12.451324 -131.422126 153.52632 -42.702936 135.561245 -89.136216 38.4274 50.299092 -3.336014 -15.654413 26.608721 -141.998574 -0.613683 116.932134 82.135099 -68.986994 32.01672 -160.674057 -6.667828 143.244687 -11.856648 33.636296 9.681368 -145.118778 0.309435 -179.227087 -67.00607 87.684192 80.250553 -139.225524 -4.397249 -136.390878 -160.752507 52.79573 -146.883521 155.61362 -4.236071 -161.992144 -137.006051 -0.078188 -178.921764 7.005879 -4.725688 -81.592869 5.476687 -0.903909 2.218763 162.89247 -0.575243 -89.353664 35.867901 -24.730778 -10.519086 27.421879 30.639445 -20.098054 0.476881 11.68011 -1.096149 160.097881 -4.901152 -142.969109 163.284913 -4.787143 -142.966288 -0.00102 0.063826 -0.01969 156.181101 -15.218496 -173.651906 -8.36789 26.426816 -7.362015 153.253028 30.850848 147.344978 179.997829 75.748509 0.00224 160.444866 61.218537 10.598141 -2.146781 72.062869 -133.215818 51.083361 -36.355681 130.087953 -179.993251 75.749322 -0.006963 -156.238085 7.079249 -2.609119 42.598976 67.647014 57.913095 -5.879675 19.911817 -98.066531
3.6878 71.1707 34.7633 -12.724641 -26.631062 9.075958 5.226578 8.153508 100.874267 -5.473921 -1.169869 -85.97631 -11.007586 28.860029 -102.049705 38.562176 23.142884 100.163141 0.002001 0.0 1.6e-05 -0.003697 -0.0 0.000573 -3.907951 18.449273 4.803799 69.288981 26.415684 0.342419 -76.840805 -27.265056 60.138589 16.257388 -34.532224 8.929189 -0.543829 0.536303 0.085435 -25.330923 21.313675 22.607037 -4.706564 7.223959 2.855214 90.518401 -60.686735 39.234357 -10.976107 25.789602 7.641349 84.371362 -78.22608 55.630797 -145.11999 0.267455 -179.213058 -153.328929 -19.050134 -176.448742 -145.54346 13.244926 -142.148644 16.913542 43.79787 6.039691 142.973526 39.431451 -147.389671 40.980003 -13.79789 -32.021264 -175.049993 -36.339638 97.067758 11.037175 7.722524 1.487555 -81.276453 -49.995898 -32.239789 67.888915 -86.142123 107.892274 -112.657682 -76.285451 -61.486508 17.726708 41.801099 -13.336014 -78.537993 -80.91871 -49.688994 164.211065 -6.980909 -143.370675 0.001033 0.063844 -0.019621 -4.291511 41.438125 -7.709306 26.564186 -38.860286 25.607316 -0.012286 -8.156372 3.061766 179.999191 75.751009 0.000554 169.230192 65.202796 -105.832703 -52.41994 -15.447294 91.422208 -95.057048 3.467405 0.007044 -0.000604 -0.000479 0.000776 54.479785 -58.014244 124.845074 79.612664 8.693479 82.162347 -30.701743 4.973998 -173.269556
3.3847 71.07520000000001 36.4096 -14.29367 -25.14702 11.129956 10.441795 7.760389 -0.98969 -0.546361 -7.747672 15.140137 -11.159839 22.034432 -62.062634 37.381897 -0.905959 67.285548 -0.002636 -0.0 0.001814 -0.002636 -0.0 0.001814 -59.830713 -86.721544 -81.6314 3.317678 26.805761 -48.558064 120.446592 -0.113073 -17.595482 -165.967849 52.334242 141.224637 -178.927687 -16.453591 89.42226 9.386355 -62.842705 8.798508 -151.352528 -17.158389 121.133599 -56.285687 56.744044 40.739625 149.547363 -77.525481 117.452493 6.88548 -11.654947 -0.938274 -0.015833 -1.323032 -0.416632 -155.310518 -1.214861 171.993994 12.632432 42.934036 10.53304 0.9104 -2.172017 -0.99156 59.833995 -86.721174 81.634524 154.146874 12.459824 135.507324 99.830341 -83.861742 10.04491 6.872441 -5.332498 3.086685 -1.589933 -1.575975 0.222826 0.984459 0.805878 0.251091 33.797506 34.485666 -25.494231 161.540516 -7.58223 -111.284723 158.522139 -0.192137 -142.145006 -80.987695 -77.631152 -52.517498 145.122279 1.974466 179.748801 153.785835 -16.739986 176.839339 25.538483 -38.087152 24.59891 -3.950435 2.078602 -0.331659 0.004954 -0.0013 0.004954 -2.102003 -2.580608 24.663617 24.724327 45.011942 -121.762597 -120.036956 -64.519943 -29.110388 0.000288 0.000375 0.000144 64.582743 -57.635845 -111.869899 -23.552692 -75.373592 53.712225 -40.684326 88.359451 116.485786
3.1522 70.25200000000001 36.7333 -16.183619 -25.051274 12.817994 12.507885 2.163905 -180.0 0.744511 3.28386 -165.419436 3.701607 14.945715 32.842771 -14.228022 -22.95581 -32.249675 -0.002611 0.0 -0.000936 -0.001884 -0.0 0.004667 -159.219997 -48.028455 170.415571 -38.111052 31.501982 -13.883157 73.763176 -51.069748 -73.306917 174.811454 5.367968 147.500636 -5.594211 5.41711 1.117358 -133.487571 -34.377436 114.426924 -0.687678 1.108417 0.393522 152.681097 -54.539019 88.685461 23.900604 -61.334418 1.396294 -159.400684 7.055645 141.581244 -0.007094 -0.83151 -0.260282 3.218888 45.21381 8.975017 -141.243595 0.677745 -138.264564 -155.221342 36.38572 -145.958384 -3.457353 -62.668806 13.249691 158.922728 52.765529 135.515036 -121.710982 76.703717 -109.190825 172.226996 9.338046 -141.125073 6.581462 6.344797 -1.365038 -178.024056 -76.000182 -96.735032 -37.216745 -57.917497 0.642272 -177.423075 -47.065568 -104.391744 -173.122334 -66.297717 -137.612401 6.16096 23.196655 -5.317914 72.13373 72.975731 -89.989085 -5.133558 27.459696 0.781473 46.800106 -48.62668 45.557585 -3.356595 -0.028536 0.586006 179.978948 75.750084 0.014404 -177.645853 72.245638 173.14522 4.518491 -54.537813 42.765849 46.441627 -24.939641 121.409032 0.001235 -0.001257 -0.0 65.695928 -57.767358 62.53634 5.186305 77.151796 -112.723926 -176.094903 65.574567 -115.574252
3.157 69.5956 36.9311 -16.237419 -24.905255 13.127669 10.047363 4.322217 93.897939 -5.254737 -1.456197 -79.380402 -0.671444 33.547592 -165.509355 7.258278 45.073939 166.939975 -0.00442 0.0 -0.002841 0.001105 -0.0 -0.002467 -69.035242 -86.84287 -90.937691 -42.150142 -20.898783 -49.406053 -172.337224 26.720425 -86.575604 -7.904029 33.708677 2.368015 -171.707128 -9.388029 89.948569 -8.38932 -49.173578 5.438766 179.290686 -59.501477 116.316806 36.061939 -38.058802 -6.640192 -82.841069 61.109568 74.532184 -1.15691 12.64988 2.360363 -6.2e-05 -0.060653 -0.020375 -156.110831 -13.745698 173.480604 25.920335 79.093661 10.829258 -146.965705 7.160531 -141.636644 157.881111 -65.637976 -175.444162 94.946934 -35.848532 99.592975 162.602061 -20.494314 80.075411 4.918271 -13.36454 3.752692 169.572747 -7.25367 -89.929216 177.249384 -14.076575 -91.926986 19.17029 24.114487 -13.38129 -95.707945 -61.923158 -45.18181 -23.901044 -61.334334 -1.397054 167.523866 -17.296846 -144.108159 145.123561 1.975016 179.749671 152.54664 76.07011 -167.12624 -12.184478 41.153109 -10.234091 9.93186 -24.457975 10.733095 179.991107 75.749334 0.009175 -179.963801 71.77901 179.96189 -16.919647 -47.312776 -104.573958 -33.393961 14.581463 -112.756531 179.98809 75.749423 0.008149 -152.281421 -2.122946 85.967166 72.891085 -6.046188 -75.020233 66.325553 -19.620922 -23.013284
2.8367 69.0836 37.141000000000005 -17.103939 -23.181159 13.486376 13.895264 1.957074 -180.0 0.966006 2.866934 -166.461984 -4.092428 14.276112 -10.833476 14.5958 -23.36081 16.949076 7.3e-05 -0.0 -0.002112 7.3e-05 -0.0 -0.002112 -158.416711 -29.366457 166.793732 136.703325 -16.665268 177.384255 -111.611813 -10.379504 34.865493 43.539465 -60.051694 32.380913 11.109067 -11.092552 -0.639735 -8.899636 7.809296 0.392519 -151.679577 -17.764451 121.237744 -79.196756 57.457936 61.57214 -160.673194 -6.667814 143.245286 -164.042093 -7.047382 143.187891 0.003189 0.917935 0.287359 -156.649794 -32.211861 175.634502 -16.207538 -29.122378 -15.474367 -84.773422 -53.73651 -84.864551 -4.208924 -43.443096 8.384094 110.149297 9.3701 168.45286 169.034521 -37.034363 81.71903 7.035786 -5.904248 3.19118 158.449142 3.763271 -88.55096 171.939262 -13.038522 -84.595502 14.22677 19.203952 -9.559773 179.495699 -33.780777 -106.849394 86.295787 60.959496 -77.856928 -3.404901 0.079591 -0.174361 0.015172 -1.323356 0.414538 148.08425 -76.782362 171.062127 152.199876 37.330846 147.580901 76.574623 -53.035326 75.738369 -0.000259 -0.000467 0.000333 1.320777 -0.938104 -0.0 3.948256 52.640076 -145.598547 43.013322 -20.454325 116.421662 0.0 0.000405 -0.001759 73.367278 -58.873848 -6.808062 -71.838346 21.829433 81.380464 -102.095174 -26.544547 8.072255
